<?xml version="1.0" encoding="UTF-8" standalone="no"?>
<svg
   id="EP_Logo_Green"
   data-name="EP Logo Green"
   viewBox="0 0 16 16"
   version="1.1"
   sodipodi:docname="EP Icon Green.svg"
   width="16"
   height="16"
   inkscape:export-filename="..\..\..\Documents\dev\idea-plugin-1\src\main\resources\icons\portal.png"
   inkscape:export-xdpi="96"
   inkscape:export-ydpi="96"
   xmlns:inkscape="http://www.inkscape.org/namespaces/inkscape"
   xmlns:sodipodi="http://sodipodi.sourceforge.net/DTD/sodipodi-0.dtd"
   xmlns="http://www.w3.org/2000/svg"
   xmlns:svg="http://www.w3.org/2000/svg">
  <sodipodi:namedview
     id="namedview7011"
     pagecolor="#ffffff"
     bordercolor="#000000"
     borderopacity="0.25"
     inkscape:showpageshadow="2"
     inkscape:pageopacity="0.0"
     inkscape:pagecheckerboard="0"
     inkscape:deskcolor="#d1d1d1"
     showgrid="true"
     showguides="false">
    <inkscape:grid
       type="xygrid"
       id="grid7184"
       originx="0"
       originy="0" />
  </sodipodi:namedview>
  <defs
     id="defs6993">
    <style
       id="style6991">.cls-1{fill:#00c895;}</style>
  </defs>
  <g
     id="icon"
     transform="matrix(0.08563586,0,0,0.08847104,-0.7959604,-2.7755982)">
    <path
       class="cls-1"
       d="m 69.34,87.67 v 19.21 a 5.45,5.45 0 0 1 -5.44,5.45 H 44.68 V 93.11 a 5.45,5.45 0 0 1 5.45,-5.44 h 19.21 m 12,-12 H 50.13 A 17.44,17.44 0 0 0 32.68,93.11 v 31.22 H 63.9 a 17.44,17.44 0 0 0 17.44,-17.45 z"
       id="path6995" />
    <polygon
       class="cls-1"
       points="149.83,99.86 141.35,94.03 125.56,143.45 134.03,151.93 "
       id="polygon6997" />
    <rect
       class="cls-1"
       x="84.970001"
       y="106.54"
       width="10.57"
       height="53.549999"
       transform="rotate(-45,90.260075,133.31305)"
       id="rect6999" />
    <polygon
       class="cls-1"
       points="72.73,90.63 81.48,99.37 135.98,86.01 127.24,77.27 "
       id="polygon7001" />
    <path
       class="cls-1"
       d="m 163.91,64.71 v 19.22 a 5.45,5.45 0 0 1 -5.45,5.44 H 139.25 V 70.16 a 5.45,5.45 0 0 1 5.44,-5.45 h 19.22 m 12,-12 h -31.22 a 17.44,17.44 0 0 0 -17.44,17.45 v 31.21 h 31.21 a 17.44,17.44 0 0 0 17.45,-17.44 z"
       id="path7005" />
    <path
       class="cls-1"
       d="m 136.37,154.69 v 19.21 a 5.46,5.46 0 0 1 -5.45,5.45 h -19.21 v -19.22 a 5.45,5.45 0 0 1 5.44,-5.44 h 19.22 m 12,-12 h -31.22 a 17.44,17.44 0 0 0 -17.44,17.44 v 31.22 h 31.21 a 17.45,17.45 0 0 0 17.45,-17.45 z"
       id="path7007" />
  </g>
</svg>
